<svg version="1.2" xmlns="http://www.w3.org/2000/svg" viewBox="0 0 71 71" width="71" height="71">
	<title>footer-logo</title>
	<style>
		.s0 { fill: #ffffff } 
		.s1 { fill: #1f1f1f } 
	</style>
	<path fill-rule="evenodd" class="s0" d="m25.9 15.7c-0.4 0.1-1.1 0-1.5 0.1 5.5 0 14.6 0.5 20 0h-1.4c-0.6-1.3-1.4-5.7-1.9-6.3l-0.1-0.3c-0.4-0.4-1.3-0.3-1.9-0.3-2.8 0-5.7 0-8.5 0-0.7 0-1.4 0-2.1 0-1 0-1 1.2-1.2 1.6-0.2 0.3 0 0-0.1 0.5-0.2 0.5-0.3 1.1-0.5 1.7 0 0.1-0.1 0.2-0.1 0.4 0 0.1-0.7 2.6-0.7 2.6z"/>
	<path fill-rule="evenodd" class="s1" d="m26.9 13.1h0.4v0.9h-0.6l0.2-0.9zm15.5 1.8v-0.9h0.3q0.2 0.4 0.3 0.9zm-16 0v-0.2zm14.3-0.9h0.9v-0.9h0.8v0.9h-0.8v0.9h-0.9zm-1.7 0h0.9v-0.9h0.8v0.9h-0.8v0.9h-0.9zm-1.6 0h0.8v-0.9h0.8v0.9h-0.8v0.8h-0.8zm-1.7 0h0.8v-0.8h0.9v0.9h-0.9v0.8h-0.8zm-1.7 0h0.8v-0.8h0.9v0.8h-0.9v0.9h-0.8zm-1.7 0h0.9v-0.9h0.8v0.9h-0.8v0.9h-0.9zm-1.7 0h0.9v-0.9h0.8v0.9h-0.8v0.9h-0.9zm-1.6 0h0.8v0.9h-0.8zm-1.7 0h0.8v0.9h-0.8zm2.5 0v-0.9h0.8v0.9zm-1.6-0.9h0.8v0.9h-0.8z"/>
	<path fill-rule="evenodd" class="s0" d="m10.4 25.1c1.1-2.4 4.4-9.4 6.9-9.5 2.6-0.6 14.5-1 17.6-1 3 0 6.2 0.1 9.2 0.3 9-0.1 9.7-0.2 12.6 6 2.5 3.8 2.2 7.4 4.9 4 1.3-1.6 4.9-0.1 5.5 1.1 1.9 4-4 3.2-6 3.3 6 5.1 6.3 7.4 6.1 15.3 0 4.6 1.7 18-1.7 19.3-0.8 0.3-5.4 0.4-6.4 0.1-2-0.7-1.5-2.9-1.6-5.4-8-0.6-37.5-0.6-45.5 0-0.1 2.7 0.3 4.9-1.9 5.4-1 0.3-5.4 0.2-6.2-0.1-2.8-1.1-2-9.1-2-12.5 0-2.3 0-13.2 0.4-14.6 0.2-1.2 4.8-6.4 6-7.5-1.8-0.1-8.4 0.5-5.8-3.6 0.6-0.9 2.6-1.5 3.9-1.4 2.5 0.2 2.1 4.7 4 0.8zm0 4.2c7.6 0.2 16-0.6 24-0.6 8.2 0 16.7 0.6 24.8 0.6l-4.5-9.7c-0.8-1.4-0.8-2-2.5-2.3-6.4-1.1-28-0.9-34.6 0-2.4 0.3-2.4 1.4-4.3 5-1.1 2.1-2.1 4.8-2.9 7zm11.9 17.8c0 2.4 1.8 4.4 4.1 4.4h16.7c2.2 0 4-2 4-4.4v-3c0-2.4-1.8-4.3-4-4.3h-16.7c-2.3 0-4.1 1.9-4.1 4.3zm-5.2 0c1-0.4 1.9-1.6 2.3-2.5-2.6-1.6-11.8-2.3-14.7-1.7-1.3 8.1 9.8 5.6 12.4 4.2zm33-2.5c0.3 0.9 1.3 2.1 2.2 2.5 2.6 1.4 13.7 3.9 12.4-4.2-2.8-0.6-12.1 0.1-14.6 1.7z"/>
	<path class="s1" d="m20.8 26.4v-5h-1.7v-1.3h4.8v1.3h-1.7v5z"/>
	<path class="s1" d="m27.5 26.4l-0.2-0.8h-2.2l-0.2 0.8h-1.5l2.1-6.3h1.4l2.1 6.3zm-2.1-1.9h1.6l-0.8-2.8z"/>
	<path class="s1" d="m29.4 26.4l2-3.1-2-3.2h1.6l1.2 2.1 1.3-2.1h1.5l-2 3.2 2 3.1h-1.5l-1.3-2.1-1.2 2.1z"/>
	<path class="s1" d="m35.7 26.4v-6.3h1.5v6.3z"/>
</svg>